# xmcd
#
# Track frame offsets:
# 150
# 15919
# 28828
# 42886
#
# Disc length: 785 seconds
#
# Revision: 1
# Processed by: cddbd v1.5.2PL0 Copyright (c) Steve Scherf et al.
# Submitted via: CedeCatalogueitor 2.6.0.6 http://personales.ya.com/cdcatalogueitor
#
DISCID=23030f04
DTITLE=Eli "Paperboy" Reed - Meets The Pepper Pots
DYEAR=1900
DGENRE=
TTITLE0=Time To Place
TTITLE1=Don't Mess Up A Good Thing
TTITLE2=There Ain't No Man That Can't Be Caught
TTITLE3=Take I Like A Man
EXTD=
EXTT0=
EXTT1=
EXTT2=
EXTT3=
PLAYORDER=
